<?xml version="1.0" encoding="UTF-8"?>
<!DOCTYPE svg PUBLIC "-//W3C//DTD SVG 1.0//EN" "http://www.w3.org/TR/2001/REC-SVG-20010904/DTD/svg10.dtd">
<!-- Creator: CorelDRAW 2019 (64-Bit) -->
<svg xmlns="http://www.w3.org/2000/svg" xml:space="preserve" width="300px" height="68px" version="1.0" style="shape-rendering:geometricPrecision; text-rendering:geometricPrecision; image-rendering:optimizeQuality; fill-rule:evenodd; clip-rule:evenodd"
viewBox="0 0 41.37 9.41"
 xmlns:xlink="http://www.w3.org/1999/xlink"
 xmlns:xodm="http://www.corel.com/coreldraw/odm/2003">
 <defs>
  <style type="text/css">
   <![CDATA[
    .fil0 {fill:#848584;fill-rule:nonzero}
    .fil1 {fill:url(#id0)}
    .fil2 {fill:url(#id1)}
    .fil6 {fill:url(#id2)}
    .fil7 {fill:url(#id3)}
    .fil8 {fill:url(#id4)}
    .fil5 {fill:url(#id5)}
    .fil3 {fill:url(#id6)}
    .fil4 {fill:url(#id7)}
    .fil9 {fill:url(#id8)}
   ]]>
  </style>
  <linearGradient id="id0" gradientUnits="userSpaceOnUse" x1="3.22" y1="1.25" x2="4.92" y2="4.08">
   <stop offset="0" style="stop-opacity:1; stop-color:#0089C8"/>
   <stop offset="0.811765" style="stop-opacity:1; stop-color:#15A1D6"/>
   <stop offset="1" style="stop-opacity:1; stop-color:#2AB9E5"/>
  </linearGradient>
  <linearGradient id="id1" gradientUnits="userSpaceOnUse" x1="5.39" y1="2.78" x2="6.33" y2="0.95">
   <stop offset="0" style="stop-opacity:1; stop-color:#0089C8"/>
   <stop offset="1" style="stop-opacity:1; stop-color:#2AB9E5"/>
  </linearGradient>
  <linearGradient id="id2" gradientUnits="userSpaceOnUse" xlink:href="#id0" x1="4.05" y1="5.65" x2="2" y2="2.28">
  </linearGradient>
  <linearGradient id="id3" gradientUnits="userSpaceOnUse" xlink:href="#id0" x1="7.84" y1="5.65" x2="4.57" y2="5.53">
  </linearGradient>
  <linearGradient id="id4" gradientUnits="userSpaceOnUse" x1="4.81" y1="6.78" x2="5.93" y2="8.68">
   <stop offset="0" style="stop-opacity:1; stop-color:#0089C8"/>
   <stop offset="0.341176" style="stop-opacity:1; stop-color:#15A1D6"/>
   <stop offset="1" style="stop-opacity:1; stop-color:#2AB9E5"/>
  </linearGradient>
  <linearGradient id="id5" gradientUnits="userSpaceOnUse" x1="2.04" y1="4.72" x2="0.01" y2="4.75">
   <stop offset="0" style="stop-opacity:1; stop-color:#0089C8"/>
   <stop offset="0.4" style="stop-opacity:1; stop-color:#15A1D6"/>
   <stop offset="1" style="stop-opacity:1; stop-color:#2AB9E5"/>
  </linearGradient>
  <linearGradient id="id6" gradientUnits="userSpaceOnUse" xlink:href="#id0" x1="3.63" y1="4.09" x2="7.56" y2="3.89">
  </linearGradient>
  <linearGradient id="id7" gradientUnits="userSpaceOnUse" xlink:href="#id0" x1="1.75" y1="7.34" x2="3.42" y2="4.53">
  </linearGradient>
  <linearGradient id="id8" gradientUnits="userSpaceOnUse" xlink:href="#id0" x1="5.27" y1="4.42" x2="3.26" y2="7.87">
  </linearGradient>
 </defs>
 <g id="Слой_x0020_1">
  <metadata id="CorelCorpID_0Corel-Layer"/>
  <g id="_2246841256592">
   <path class="fil0" d="M10.16 3.51l0 -0.61c-0.05,0.01 -0.11,0.03 -0.18,0.04 -0.08,0.01 -0.14,0.02 -0.2,0.02 -0.08,0 -0.15,-0.01 -0.2,-0.02 -0.06,-0.02 -0.11,-0.04 -0.15,-0.06 -0.04,-0.03 -0.07,-0.06 -0.1,-0.1 -0.02,-0.04 -0.05,-0.08 -0.06,-0.12 -0.01,-0.04 -0.02,-0.09 -0.02,-0.13 -0.01,-0.05 -0.01,-0.1 -0.01,-0.16l0 -0.49 0.3 0 0 0.49c0,0.04 0,0.08 0,0.11 0.01,0.04 0.01,0.07 0.02,0.09 0.02,0.05 0.05,0.08 0.09,0.1 0.04,0.02 0.09,0.03 0.16,0.03 0.06,0 0.12,0 0.18,-0.01 0.06,-0.02 0.12,-0.03 0.17,-0.05l0 -0.76 0.3 0 0 1.63 -0.3 0zm1.26 -0.2c0.05,0 0.11,-0.01 0.17,-0.02 0.07,-0.01 0.13,-0.03 0.19,-0.05l0 0.23c-0.04,0.02 -0.1,0.03 -0.17,0.05 -0.08,0.01 -0.16,0.02 -0.24,0.02 -0.09,0 -0.17,-0.01 -0.24,-0.03 -0.08,-0.02 -0.14,-0.06 -0.2,-0.11 -0.05,-0.04 -0.1,-0.11 -0.13,-0.18 -0.03,-0.08 -0.05,-0.17 -0.05,-0.28 0,-0.11 0.01,-0.2 0.05,-0.28 0.03,-0.08 0.07,-0.15 0.12,-0.2 0.05,-0.06 0.11,-0.1 0.18,-0.12 0.07,-0.03 0.13,-0.04 0.21,-0.04 0.07,0 0.14,0.01 0.2,0.03 0.07,0.03 0.12,0.06 0.17,0.11 0.04,0.05 0.08,0.11 0.1,0.19 0.03,0.07 0.04,0.17 0.04,0.27 0,0.04 0,0.08 0,0.1l-0.78 0c0.01,0.06 0.02,0.11 0.04,0.14 0.02,0.04 0.05,0.07 0.08,0.1 0.03,0.02 0.07,0.04 0.12,0.05 0.04,0.01 0.09,0.02 0.14,0.02zm-0.12 -0.79c-0.03,0 -0.07,0.01 -0.09,0.02 -0.03,0.02 -0.06,0.04 -0.08,0.06 -0.02,0.02 -0.04,0.05 -0.05,0.08 -0.01,0.03 -0.02,0.06 -0.02,0.1l0.46 0c0,-0.04 0,-0.07 -0.01,-0.1 -0.01,-0.03 -0.02,-0.06 -0.04,-0.08 -0.02,-0.02 -0.04,-0.04 -0.07,-0.06 -0.03,-0.01 -0.06,-0.02 -0.1,-0.02zm1.75 -0.19l0 1.18 -0.29 0 0 -0.94 -0.2 0c-0.03,0.15 -0.05,0.28 -0.08,0.39 -0.02,0.11 -0.05,0.2 -0.08,0.27 -0.03,0.07 -0.06,0.13 -0.09,0.17 -0.03,0.04 -0.07,0.07 -0.1,0.09 -0.03,0.01 -0.07,0.03 -0.1,0.03 -0.04,0.01 -0.07,0.01 -0.11,0.01 -0.01,0 -0.03,0 -0.04,0 -0.02,0 -0.04,0 -0.05,-0.01l0 -0.25c0.02,0 0.04,0 0.06,0 0.03,0 0.06,0 0.08,-0.01 0.02,-0.01 0.04,-0.02 0.06,-0.04 0.01,-0.02 0.03,-0.05 0.05,-0.09 0.02,-0.04 0.04,-0.1 0.06,-0.17 0.01,-0.07 0.03,-0.16 0.05,-0.26 0.02,-0.1 0.04,-0.23 0.06,-0.37l0.72 0zm0.79 0.22c-0.06,0 -0.11,0.01 -0.15,0.04 -0.01,0.01 -0.03,0.03 -0.03,0.05 -0.01,0.02 -0.02,0.05 -0.02,0.07 0,0.04 0.01,0.07 0.03,0.09 0.02,0.02 0.04,0.04 0.07,0.05 0.02,0.01 0.03,0.01 0.05,0.01 0.02,0.01 0.04,0.01 0.07,0.01l0.19 0 0 -0.32 -0.21 0zm-0.5 0.17c0,-0.03 0.01,-0.07 0.02,-0.1 0,-0.03 0.01,-0.06 0.03,-0.09 0.02,-0.03 0.04,-0.06 0.06,-0.08 0.03,-0.03 0.06,-0.05 0.09,-0.07 0.04,-0.01 0.07,-0.03 0.12,-0.04 0.05,-0.01 0.1,-0.01 0.16,-0.01l0.52 0 0 1.18 -0.29 0 0 -0.42 -0.23 0 -0.22 0.42 -0.32 0 0.26 -0.48 0 0c-0.06,-0.03 -0.11,-0.07 -0.15,-0.12 -0.03,-0.06 -0.05,-0.12 -0.05,-0.19zm1.95 -0.7c-0.07,0 -0.13,0.02 -0.17,0.03 -0.04,0.02 -0.08,0.04 -0.11,0.08 -0.03,0.03 -0.05,0.07 -0.07,0.13 -0.02,0.05 -0.03,0.11 -0.03,0.19l0 0c0.05,-0.02 0.1,-0.04 0.15,-0.06 0.06,-0.01 0.12,-0.02 0.18,-0.02 0.07,0 0.14,0.01 0.21,0.03 0.06,0.02 0.12,0.06 0.16,0.1 0.05,0.05 0.09,0.11 0.11,0.17 0.03,0.07 0.04,0.15 0.04,0.24 0,0.1 -0.01,0.18 -0.04,0.26 -0.03,0.08 -0.06,0.14 -0.11,0.2 -0.05,0.05 -0.11,0.1 -0.19,0.13 -0.07,0.03 -0.15,0.04 -0.25,0.04 -0.09,0 -0.17,-0.02 -0.24,-0.05 -0.07,-0.04 -0.13,-0.09 -0.18,-0.16 -0.05,-0.07 -0.08,-0.15 -0.11,-0.26 -0.02,-0.1 -0.04,-0.22 -0.04,-0.35 0,-0.14 0.02,-0.26 0.04,-0.38 0.03,-0.11 0.07,-0.21 0.12,-0.29 0.06,-0.09 0.13,-0.15 0.22,-0.2 0.09,-0.06 0.2,-0.09 0.34,-0.1l0.35 -0.03 0 0.26 -0.38 0.04zm-0.39 0.67c0,0.03 0,0.05 0,0.07 0,0.1 0.01,0.18 0.02,0.25 0.02,0.06 0.04,0.12 0.06,0.16 0.03,0.05 0.06,0.08 0.09,0.1 0.04,0.02 0.08,0.03 0.12,0.03 0.08,0 0.15,-0.03 0.2,-0.1 0.05,-0.06 0.07,-0.16 0.07,-0.27 0,-0.07 -0.01,-0.12 -0.02,-0.16 -0.02,-0.04 -0.04,-0.08 -0.06,-0.1 -0.03,-0.02 -0.06,-0.04 -0.09,-0.05 -0.03,-0.01 -0.07,-0.02 -0.1,-0.02 -0.06,0 -0.11,0.01 -0.16,0.03 -0.05,0.02 -0.09,0.04 -0.13,0.06zm2.21 -0.36l0 1.18 -0.29 0 0 -0.34c0,-0.16 0,-0.3 0.01,-0.42l0 0c-0.05,0.08 -0.13,0.19 -0.23,0.33l-0.32 0.43 -0.26 0 0 -1.18 0.28 0 0 0.34c0,0.17 0,0.31 -0.01,0.42l0.01 0c0.05,-0.08 0.12,-0.19 0.23,-0.34l0.31 -0.42 0.27 0zm1.08 1.18l0 -0.49 -0.48 0 0 0.49 -0.28 0 0 -1.18 0.28 0 0 0.45 0.48 0 0 -0.45 0.29 0 0 1.18 -0.29 0zm1.46 -0.03c-0.04,0.02 -0.08,0.03 -0.13,0.04 -0.06,0.01 -0.11,0.02 -0.17,0.02 -0.09,0 -0.17,-0.01 -0.24,-0.04 -0.07,-0.02 -0.14,-0.06 -0.19,-0.11 -0.06,-0.05 -0.1,-0.11 -0.13,-0.19 -0.04,-0.07 -0.05,-0.16 -0.05,-0.26 0,-0.12 0.02,-0.21 0.05,-0.3 0.04,-0.08 0.09,-0.14 0.14,-0.19 0.06,-0.05 0.13,-0.09 0.2,-0.12 0.07,-0.02 0.15,-0.03 0.22,-0.03 0.05,0 0.1,0 0.15,0.01 0.05,0.01 0.09,0.02 0.13,0.04l0 0.24c-0.03,-0.02 -0.07,-0.03 -0.11,-0.04 -0.04,-0.01 -0.09,-0.02 -0.13,-0.02 -0.05,0 -0.09,0.01 -0.14,0.03 -0.04,0.01 -0.08,0.03 -0.11,0.06 -0.03,0.03 -0.06,0.08 -0.08,0.13 -0.01,0.05 -0.02,0.11 -0.02,0.18 0,0.05 0,0.1 0.02,0.15 0.01,0.04 0.03,0.08 0.06,0.11 0.03,0.04 0.07,0.06 0.11,0.08 0.04,0.02 0.09,0.03 0.15,0.03 0.06,0 0.1,0 0.15,-0.01 0.04,-0.01 0.08,-0.03 0.12,-0.04l0 0.23zm0.25 -1.15l0.29 0 0 0.51 0.01 0 0.4 -0.51 0.35 0 -0.48 0.58 0.5 0.6 -0.34 0 -0.44 -0.52 0 0 0 0.52 -0.29 0 0 -1.18zm2.34 0l0 1.18 -0.29 0 0 -0.34c0,-0.16 0,-0.3 0.01,-0.42l0 0c-0.05,0.08 -0.13,0.19 -0.23,0.33l-0.32 0.43 -0.26 0 0 -1.18 0.28 0 0 0.34c0,0.17 0,0.31 -0.01,0.42l0.01 0c0.05,-0.08 0.12,-0.19 0.23,-0.34l0.31 -0.42 0.27 0zm1.41 0l0 1.18 -0.29 0 0 -0.34c0,-0.16 0,-0.3 0.01,-0.42l0 0c-0.05,0.08 -0.13,0.19 -0.23,0.33l-0.32 0.43 -0.26 0 0 -1.18 0.28 0 0 0.34c0,0.17 0,0.31 -0.01,0.42l0.01 0c0.05,-0.08 0.12,-0.19 0.23,-0.34l0.31 -0.42 0.27 0zm-0.53 -0.35c0.04,0 0.08,-0.02 0.11,-0.06 0.03,-0.04 0.05,-0.09 0.05,-0.16l0.27 0c0,0.06 -0.01,0.12 -0.03,0.17 -0.02,0.05 -0.05,0.1 -0.09,0.14 -0.04,0.04 -0.08,0.07 -0.13,0.09 -0.06,0.02 -0.12,0.03 -0.19,0.03 -0.06,0 -0.12,-0.01 -0.17,-0.03 -0.06,-0.02 -0.1,-0.05 -0.14,-0.09 -0.03,-0.04 -0.06,-0.09 -0.08,-0.14 -0.02,-0.05 -0.03,-0.11 -0.04,-0.17l0.27 0c0.01,0.07 0.02,0.12 0.05,0.16 0.03,0.04 0.07,0.06 0.12,0.06zm1.31 0.39c0.06,-0.02 0.12,-0.04 0.19,-0.05 0.07,-0.02 0.14,-0.02 0.21,-0.02 0.08,0 0.15,0.01 0.21,0.02 0.06,0.02 0.11,0.04 0.15,0.07 0.05,0.03 0.08,0.07 0.1,0.11 0.02,0.04 0.03,0.09 0.03,0.14 0,0.06 -0.01,0.11 -0.04,0.16 -0.03,0.04 -0.07,0.07 -0.12,0.09l0 0.01c0.03,0.01 0.06,0.02 0.08,0.04 0.02,0.01 0.04,0.03 0.06,0.05 0.02,0.02 0.03,0.05 0.04,0.07 0.01,0.03 0.02,0.06 0.02,0.1 0,0.05 -0.01,0.1 -0.04,0.14 -0.02,0.05 -0.05,0.09 -0.09,0.13 -0.05,0.03 -0.1,0.06 -0.17,0.08 -0.07,0.02 -0.16,0.03 -0.25,0.03 -0.09,0 -0.16,-0.01 -0.23,-0.02 -0.06,-0.01 -0.12,-0.03 -0.17,-0.05l0 -0.24c0.06,0.03 0.12,0.05 0.18,0.06 0.07,0.01 0.13,0.02 0.18,0.02 0.06,0 0.1,-0.01 0.14,-0.01 0.03,-0.01 0.06,-0.02 0.08,-0.03 0.03,-0.02 0.04,-0.04 0.05,-0.05 0.01,-0.02 0.01,-0.04 0.01,-0.07 0,-0.06 -0.03,-0.1 -0.1,-0.12 -0.02,0 -0.06,-0.01 -0.11,-0.01l-0.28 0 0 -0.22 0.29 0c0.04,0 0.07,-0.01 0.09,-0.01 0.03,-0.01 0.05,-0.03 0.06,-0.05 0.01,-0.02 0.02,-0.05 0.02,-0.07 0,-0.05 -0.02,-0.08 -0.05,-0.11 -0.04,-0.02 -0.1,-0.03 -0.17,-0.03 -0.06,0 -0.13,0.01 -0.19,0.02 -0.07,0.01 -0.13,0.03 -0.18,0.05l0 -0.23zm1.88 1.01l-0.01 0c-0.01,0.02 -0.03,0.04 -0.06,0.06 -0.02,0.01 -0.04,0.03 -0.07,0.05 -0.03,0.01 -0.07,0.03 -0.1,0.04 -0.04,0 -0.08,0.01 -0.12,0.01 -0.05,0 -0.11,-0.01 -0.15,-0.03 -0.05,-0.01 -0.09,-0.04 -0.13,-0.07 -0.03,-0.03 -0.06,-0.07 -0.08,-0.12 -0.02,-0.05 -0.03,-0.1 -0.03,-0.16 0,-0.06 0.01,-0.12 0.03,-0.17 0.03,-0.05 0.06,-0.09 0.1,-0.13 0.04,-0.03 0.09,-0.06 0.15,-0.08 0.06,-0.02 0.12,-0.02 0.19,-0.02 0.05,0 0.1,0 0.14,0.01 0.04,0 0.08,0.01 0.11,0.02l0 -0.05c0,-0.03 0,-0.05 -0.01,-0.08 -0.01,-0.02 -0.02,-0.05 -0.04,-0.07 -0.03,-0.02 -0.05,-0.03 -0.09,-0.05 -0.03,-0.01 -0.07,-0.01 -0.12,-0.01 -0.06,0 -0.11,0 -0.17,0.02 -0.06,0.01 -0.13,0.03 -0.19,0.06l0 -0.23c0.06,-0.03 0.12,-0.05 0.19,-0.06 0.06,-0.01 0.13,-0.02 0.21,-0.02 0.08,0 0.16,0.01 0.22,0.03 0.07,0.02 0.12,0.05 0.16,0.09 0.05,0.03 0.08,0.08 0.1,0.13 0.02,0.05 0.03,0.1 0.03,0.16l0 0.45c0,0.08 0,0.14 0.01,0.2 0,0.06 0,0.11 0,0.15l-0.26 0 -0.01 -0.13zm-0.03 -0.37c-0.02,-0.01 -0.05,-0.02 -0.09,-0.02 -0.04,-0.01 -0.07,-0.01 -0.11,-0.01 -0.07,0 -0.13,0.01 -0.17,0.04 -0.04,0.03 -0.06,0.07 -0.06,0.13 0,0.03 0.01,0.05 0.02,0.07 0,0.02 0.02,0.04 0.03,0.05 0.02,0.01 0.04,0.02 0.06,0.03 0.02,0.01 0.04,0.01 0.07,0.01 0.03,0 0.05,0 0.08,-0.01 0.03,-0.01 0.05,-0.02 0.07,-0.03 0.02,-0.01 0.04,-0.03 0.06,-0.04 0.02,-0.02 0.03,-0.03 0.04,-0.04l0 -0.18zm1.59 -0.37c0,0.06 -0.01,0.11 -0.05,0.15 -0.03,0.04 -0.07,0.08 -0.13,0.1l0 0c0.07,0.02 0.13,0.05 0.16,0.1 0.04,0.04 0.05,0.09 0.05,0.16 0,0.07 -0.02,0.14 -0.06,0.2 -0.05,0.06 -0.12,0.1 -0.21,0.13 -0.03,0.01 -0.07,0.02 -0.11,0.02 -0.05,0.01 -0.1,0.01 -0.16,0.01l-0.46 0 0 -1.18 0.52 0c0.04,0 0.08,0 0.12,0 0.03,0.01 0.07,0.02 0.09,0.02 0.08,0.03 0.14,0.06 0.18,0.11 0.04,0.05 0.06,0.11 0.06,0.18zm-0.48 0.65c0.03,0 0.06,-0.01 0.08,-0.01 0.02,0 0.04,-0.01 0.05,-0.01 0.03,-0.01 0.05,-0.03 0.06,-0.05 0.02,-0.02 0.03,-0.04 0.03,-0.07 0,-0.03 -0.01,-0.05 -0.02,-0.07 -0.02,-0.02 -0.03,-0.03 -0.06,-0.05 -0.01,0 -0.03,-0.01 -0.04,-0.01 -0.02,0 -0.04,0 -0.06,0l-0.25 0 0 0.27 0.21 0zm0.01 -0.5c0.05,0 0.09,0 0.11,-0.02 0.02,-0.01 0.04,-0.02 0.05,-0.04 0.01,-0.02 0.01,-0.04 0.01,-0.06 0,-0.05 -0.02,-0.08 -0.06,-0.1 -0.02,-0.01 -0.06,-0.02 -0.11,-0.02l-0.22 0 0 0.24 0.22 0zm1.59 0.13c0,-0.06 -0.01,-0.12 -0.02,-0.17 -0.02,-0.05 -0.04,-0.09 -0.06,-0.12 -0.03,-0.03 -0.06,-0.05 -0.1,-0.07 -0.03,-0.02 -0.07,-0.03 -0.12,-0.03 -0.04,0 -0.08,0.01 -0.12,0.03 -0.03,0.02 -0.06,0.04 -0.09,0.07 -0.02,0.03 -0.04,0.07 -0.06,0.12 -0.01,0.05 -0.02,0.11 -0.02,0.17 0,0.06 0.01,0.12 0.02,0.16 0.02,0.05 0.04,0.09 0.06,0.12 0.03,0.04 0.06,0.06 0.1,0.08 0.03,0.01 0.07,0.02 0.11,0.02 0.05,0 0.09,-0.01 0.12,-0.02 0.04,-0.02 0.07,-0.04 0.1,-0.08 0.02,-0.03 0.04,-0.07 0.06,-0.12 0.01,-0.04 0.02,-0.1 0.02,-0.16zm0.3 0c0,0.09 -0.02,0.18 -0.04,0.25 -0.03,0.08 -0.07,0.14 -0.12,0.2 -0.05,0.05 -0.12,0.1 -0.19,0.13 -0.07,0.03 -0.15,0.04 -0.25,0.04 -0.09,0 -0.17,-0.01 -0.24,-0.04 -0.08,-0.03 -0.14,-0.08 -0.19,-0.13 -0.05,-0.06 -0.09,-0.12 -0.12,-0.2 -0.03,-0.07 -0.04,-0.16 -0.04,-0.25 0,-0.09 0.01,-0.18 0.04,-0.25 0.03,-0.08 0.07,-0.15 0.12,-0.2 0.05,-0.06 0.11,-0.1 0.19,-0.13 0.07,-0.03 0.15,-0.04 0.24,-0.04 0.1,0 0.18,0.01 0.25,0.04 0.08,0.03 0.14,0.07 0.19,0.13 0.05,0.05 0.09,0.12 0.12,0.2 0.02,0.07 0.04,0.16 0.04,0.25zm1.22 -0.59l0 0.93 0.18 0 0 0.66 -0.28 0 0 -0.41 -0.76 0 0 0.41 -0.28 0 0 -0.66 0.08 0c0.05,-0.05 0.1,-0.11 0.14,-0.17 0.04,-0.06 0.08,-0.12 0.11,-0.2 0.03,-0.07 0.05,-0.15 0.07,-0.25 0.02,-0.09 0.03,-0.19 0.03,-0.31l0.71 0zm-0.47 0.24c-0.01,0.08 -0.02,0.15 -0.03,0.22 -0.02,0.06 -0.04,0.12 -0.06,0.18 -0.02,0.05 -0.05,0.1 -0.08,0.15 -0.03,0.05 -0.06,0.09 -0.09,0.14l0 0 0.44 0 0 -0.69 -0.18 0zm-20.15 2.45c0.05,-0.16 0.1,-0.35 0.17,-0.55l0.09 -0.24 0.4 0 0 1.18 -0.28 0 0 -0.42c0,-0.11 0,-0.25 0.01,-0.43l-0.01 0c-0.02,0.07 -0.05,0.16 -0.09,0.27 -0.04,0.11 -0.08,0.23 -0.13,0.37l-0.07 0.21 -0.19 0 -0.07 -0.21c-0.05,-0.14 -0.09,-0.26 -0.13,-0.37 -0.04,-0.11 -0.07,-0.2 -0.09,-0.27l-0.01 0c0.01,0.17 0.01,0.31 0.01,0.43l0 0.42 -0.27 0 0 -1.18 0.4 0 0.08 0.24c0.07,0.22 0.13,0.4 0.17,0.55l0.01 0zm1.8 -0.2c0,-0.06 -0.01,-0.12 -0.02,-0.16 -0.02,-0.05 -0.04,-0.09 -0.06,-0.12 -0.03,-0.04 -0.06,-0.06 -0.1,-0.08 -0.03,-0.01 -0.07,-0.02 -0.12,-0.02 -0.04,0 -0.08,0.01 -0.11,0.02 -0.04,0.02 -0.07,0.04 -0.1,0.08 -0.02,0.03 -0.04,0.07 -0.06,0.12 -0.01,0.04 -0.02,0.1 -0.02,0.16 0,0.06 0.01,0.12 0.02,0.17 0.02,0.05 0.04,0.09 0.06,0.12 0.03,0.03 0.06,0.05 0.1,0.07 0.03,0.02 0.07,0.03 0.12,0.03 0.04,0 0.08,-0.01 0.12,-0.03 0.03,-0.02 0.06,-0.04 0.09,-0.07 0.02,-0.03 0.04,-0.07 0.06,-0.12 0.01,-0.05 0.02,-0.11 0.02,-0.17zm0.3 0c0,0.09 -0.01,0.18 -0.04,0.26 -0.03,0.07 -0.07,0.14 -0.12,0.19 -0.05,0.06 -0.11,0.1 -0.19,0.13 -0.07,0.03 -0.15,0.04 -0.24,0.04 -0.1,0 -0.18,-0.01 -0.25,-0.04 -0.08,-0.03 -0.14,-0.07 -0.19,-0.13 -0.05,-0.05 -0.09,-0.12 -0.12,-0.19 -0.02,-0.08 -0.04,-0.17 -0.04,-0.26 0,-0.09 0.02,-0.18 0.04,-0.25 0.03,-0.08 0.07,-0.14 0.12,-0.2 0.05,-0.05 0.12,-0.1 0.19,-0.12 0.07,-0.03 0.15,-0.05 0.24,-0.05 0.1,0 0.18,0.02 0.25,0.05 0.08,0.02 0.14,0.07 0.19,0.12 0.05,0.06 0.09,0.12 0.12,0.2 0.03,0.07 0.04,0.16 0.04,0.25zm0.89 -0.9c-0.07,0.01 -0.12,0.02 -0.17,0.03 -0.04,0.02 -0.08,0.05 -0.11,0.08 -0.03,0.03 -0.05,0.08 -0.07,0.13 -0.01,0.05 -0.02,0.12 -0.03,0.19l0.01 0c0.04,-0.02 0.09,-0.04 0.15,-0.06 0.05,-0.01 0.11,-0.02 0.17,-0.02 0.08,0 0.15,0.01 0.21,0.03 0.07,0.03 0.12,0.06 0.17,0.11 0.04,0.04 0.08,0.1 0.1,0.17 0.03,0.06 0.04,0.14 0.04,0.24 0,0.09 -0.01,0.18 -0.04,0.25 -0.02,0.08 -0.06,0.15 -0.11,0.2 -0.05,0.06 -0.11,0.1 -0.19,0.13 -0.07,0.03 -0.15,0.04 -0.24,0.04 -0.1,0 -0.18,-0.02 -0.25,-0.05 -0.07,-0.03 -0.13,-0.09 -0.17,-0.16 -0.05,-0.07 -0.09,-0.15 -0.12,-0.25 -0.02,-0.11 -0.03,-0.23 -0.03,-0.36 0,-0.14 0.01,-0.26 0.03,-0.38 0.03,-0.11 0.07,-0.21 0.12,-0.29 0.06,-0.08 0.13,-0.15 0.22,-0.2 0.09,-0.05 0.2,-0.09 0.34,-0.1l0.35 -0.03 0 0.26 -0.38 0.04zm-0.38 0.67c-0.01,0.03 -0.01,0.06 -0.01,0.08 0,0.09 0.01,0.17 0.03,0.24 0.01,0.07 0.03,0.12 0.06,0.17 0.02,0.04 0.05,0.07 0.09,0.09 0.03,0.03 0.07,0.04 0.11,0.04 0.09,0 0.15,-0.04 0.2,-0.1 0.05,-0.07 0.07,-0.16 0.07,-0.28 0,-0.06 0,-0.11 -0.02,-0.16 -0.02,-0.04 -0.04,-0.07 -0.06,-0.1 -0.03,-0.02 -0.06,-0.04 -0.09,-0.05 -0.03,-0.01 -0.07,-0.01 -0.1,-0.01 -0.05,0 -0.11,0 -0.16,0.02 -0.05,0.02 -0.09,0.04 -0.12,0.06zm2.2 -0.36l0 1.18 -0.29 0 0 -0.34c0,-0.16 0.01,-0.3 0.01,-0.42l0 0c-0.05,0.08 -0.13,0.2 -0.23,0.34l-0.32 0.42 -0.26 0 0 -1.18 0.29 0 0 0.34c0,0.17 -0.01,0.31 -0.01,0.42l0 0c0.05,-0.08 0.12,-0.19 0.23,-0.33l0.31 -0.43 0.27 0zm1.33 0l0 1.18 -0.29 0 0 -0.94 -0.21 0c-0.02,0.15 -0.04,0.28 -0.07,0.39 -0.02,0.11 -0.05,0.2 -0.08,0.27 -0.03,0.07 -0.06,0.13 -0.1,0.17 -0.03,0.04 -0.06,0.07 -0.09,0.09 -0.04,0.02 -0.07,0.03 -0.11,0.04 -0.03,0 -0.06,0 -0.1,0 -0.02,0 -0.03,0 -0.05,0 -0.01,0 -0.03,0 -0.05,0l0 -0.26c0.03,0 0.05,0 0.07,0 0.03,0 0.05,0 0.07,-0.01 0.02,0 0.04,-0.02 0.06,-0.04 0.02,-0.02 0.04,-0.05 0.06,-0.09 0.02,-0.04 0.03,-0.1 0.05,-0.17 0.02,-0.07 0.04,-0.15 0.06,-0.26 0.02,-0.1 0.03,-0.22 0.05,-0.37l0.73 0zm0.61 0l0 0.42c0.06,0 0.12,-0.01 0.18,-0.01 0.09,0 0.17,0.01 0.24,0.03 0.07,0.03 0.13,0.05 0.17,0.09 0.05,0.04 0.08,0.08 0.1,0.12 0.02,0.05 0.03,0.1 0.03,0.16 0,0.07 -0.02,0.13 -0.05,0.18 -0.03,0.05 -0.07,0.09 -0.12,0.12 -0.06,0.04 -0.12,0.06 -0.2,0.08 -0.07,0.01 -0.15,0.02 -0.24,0.02 -0.15,0 -0.28,-0.01 -0.4,-0.04l0 -1.17 0.29 0zm0.13 0.98c0.09,0 0.16,-0.02 0.21,-0.04 0.05,-0.03 0.08,-0.07 0.08,-0.13 0,-0.02 0,-0.04 -0.01,-0.06 -0.01,-0.02 -0.03,-0.04 -0.05,-0.05 -0.02,-0.02 -0.05,-0.03 -0.09,-0.04 -0.03,-0.01 -0.07,-0.01 -0.12,-0.01 -0.05,0 -0.1,0 -0.15,0.01l0 0.31c0.04,0 0.08,0.01 0.13,0.01zm1.61 0.2l0 -0.49 -0.47 0 0 0.49 -0.29 0 0 -1.18 0.29 0 0 0.45 0.47 0 0 -0.45 0.29 0 0 1.18 -0.29 0zm0.9 -1.18l0 0.42c0.06,0 0.11,-0.01 0.16,-0.01 0.09,0 0.18,0.01 0.24,0.03 0.07,0.02 0.13,0.05 0.17,0.08 0.04,0.04 0.08,0.08 0.1,0.13 0.02,0.04 0.03,0.09 0.03,0.15 0,0.07 -0.02,0.13 -0.05,0.18 -0.03,0.05 -0.07,0.09 -0.12,0.13 -0.06,0.03 -0.12,0.06 -0.19,0.08 -0.08,0.01 -0.15,0.02 -0.24,0.02 -0.07,0 -0.14,0 -0.21,-0.01 -0.06,-0.01 -0.12,-0.02 -0.18,-0.03l0 -1.17 0.29 0zm0.12 0.98c0.04,0 0.08,-0.01 0.11,-0.01 0.04,-0.01 0.07,-0.02 0.09,-0.03 0.03,-0.02 0.04,-0.04 0.06,-0.06 0.01,-0.02 0.02,-0.04 0.02,-0.07 0,-0.05 -0.02,-0.09 -0.06,-0.12 -0.05,-0.03 -0.11,-0.04 -0.2,-0.04 -0.05,0 -0.09,0 -0.14,0.01l0 0.31c0.03,0 0.07,0.01 0.12,0.01zm0.7 -0.98l0.29 0 0 1.18 -0.29 0 0 -1.18zm1.1 0.77l-0.31 0.41 -0.33 0 0.47 -0.6 -0.44 -0.58 0.34 0 0.27 0.39 0.28 -0.39 0.34 0 -0.45 0.58 0.47 0.6 -0.34 0 -0.3 -0.41zm1.62 -0.8c0.09,0 0.18,0.01 0.26,0.04 0.07,0.03 0.14,0.07 0.19,0.12 0.06,0.06 0.1,0.12 0.13,0.2 0.03,0.08 0.05,0.16 0.05,0.26 0,0.11 -0.02,0.2 -0.05,0.27 -0.03,0.08 -0.07,0.15 -0.13,0.2 -0.05,0.05 -0.12,0.09 -0.2,0.11 -0.08,0.03 -0.17,0.04 -0.27,0.04 -0.07,0 -0.13,0 -0.19,-0.02 -0.06,-0.01 -0.11,-0.03 -0.15,-0.05l0 -0.23c0.06,0.03 0.11,0.04 0.17,0.06 0.05,0.01 0.1,0.01 0.15,0.01 0.12,0 0.21,-0.02 0.27,-0.07 0.06,-0.05 0.1,-0.12 0.11,-0.21l-0.6 0 0 -0.23 0.59 0c-0.01,-0.05 -0.02,-0.09 -0.05,-0.12 -0.02,-0.04 -0.04,-0.06 -0.08,-0.09 -0.03,-0.02 -0.06,-0.03 -0.1,-0.04 -0.04,-0.01 -0.09,-0.02 -0.13,-0.02 -0.06,0 -0.11,0.01 -0.16,0.02 -0.06,0.01 -0.1,0.02 -0.15,0.04l0 -0.22c0.05,-0.03 0.1,-0.04 0.16,-0.05 0.05,-0.01 0.11,-0.02 0.18,-0.02zm1.65 1.21l0 -0.49 -0.48 0 0 0.49 -0.28 0 0 -1.18 0.28 0 0 0.45 0.48 0 0 -0.45 0.29 0 0 1.18 -0.29 0zm1.22 -0.2c0.05,0 0.11,-0.01 0.17,-0.02 0.06,-0.01 0.13,-0.03 0.19,-0.05l0 0.23c-0.04,0.02 -0.1,0.04 -0.17,0.05 -0.08,0.02 -0.16,0.02 -0.24,0.02 -0.09,0 -0.17,-0.01 -0.24,-0.03 -0.08,-0.02 -0.14,-0.06 -0.2,-0.1 -0.06,-0.05 -0.1,-0.11 -0.13,-0.19 -0.04,-0.08 -0.05,-0.17 -0.05,-0.28 0,-0.11 0.01,-0.2 0.04,-0.28 0.03,-0.08 0.08,-0.15 0.13,-0.2 0.05,-0.05 0.11,-0.09 0.18,-0.12 0.06,-0.03 0.13,-0.04 0.2,-0.04 0.08,0 0.15,0.01 0.21,0.03 0.06,0.03 0.12,0.06 0.16,0.11 0.05,0.05 0.09,0.11 0.11,0.19 0.03,0.08 0.04,0.17 0.04,0.27 0,0.04 0,0.08 0,0.11l-0.78 0c0.01,0.05 0.02,0.1 0.04,0.14 0.02,0.04 0.05,0.07 0.08,0.09 0.03,0.02 0.07,0.04 0.11,0.05 0.05,0.01 0.1,0.02 0.15,0.02zm-0.12 -0.78c-0.04,0 -0.07,0 -0.1,0.02 -0.03,0.01 -0.05,0.03 -0.07,0.05 -0.02,0.02 -0.04,0.05 -0.05,0.08 -0.01,0.03 -0.02,0.07 -0.02,0.1l0.46 0c0,-0.03 0,-0.07 -0.01,-0.1 -0.01,-0.03 -0.03,-0.06 -0.05,-0.08 -0.01,-0.02 -0.04,-0.04 -0.06,-0.05 -0.03,-0.02 -0.06,-0.02 -0.1,-0.02zm-1.04 1.45c0.04,0 0.08,-0.02 0.11,-0.06 0.03,-0.03 0.05,-0.09 0.05,-0.16l0.27 0c0,0.06 -0.01,0.12 -0.03,0.17 -0.02,0.06 -0.05,0.1 -0.09,0.14 -0.04,0.04 -0.08,0.07 -0.13,0.09 -0.06,0.02 -0.12,0.04 -0.19,0.04 -0.06,0 -0.12,-0.02 -0.17,-0.04 -0.06,-0.02 -0.1,-0.05 -0.14,-0.09 -0.03,-0.04 -0.06,-0.08 -0.08,-0.14 -0.02,-0.05 -0.03,-0.11 -0.04,-0.17l0.27 0c0.01,0.07 0.02,0.13 0.05,0.16 0.03,0.04 0.07,0.06 0.12,0.06zm0.53 0.25l0 1.18 -0.29 0 0 -0.34c0,-0.15 0.01,-0.29 0.01,-0.42l0 0c-0.05,0.09 -0.13,0.2 -0.23,0.34l-0.32 0.42 -0.26 0 0 -1.18 0.29 0 0 0.35c0,0.16 -0.01,0.31 -0.01,0.42l0 0c0.05,-0.08 0.12,-0.2 0.23,-0.34l0.31 -0.43 0.27 0zm-1.41 0l0 1.18 -0.29 0 0 -0.34c0,-0.15 0.01,-0.29 0.01,-0.42l0 0c-0.05,0.09 -0.13,0.2 -0.23,0.34l-0.32 0.42 -0.26 0 0 -1.18 0.29 0 0 0.35c0,0.16 -0.01,0.31 -0.01,0.42l0 0c0.05,-0.08 0.12,-0.2 0.23,-0.34l0.31 -0.43 0.27 0zm-2.46 1.18l0 -1.18 0.29 0 0 0.94 0.43 0 0 -0.94 0.28 0 0 0.94 0.18 0 0 0.66 -0.28 0 0 -0.42 -0.9 0zm-1.24 -1.18l0.29 0 0 0.52 0 0 0.41 -0.52 0.35 0 -0.49 0.59 0.51 0.59 -0.35 0 -0.43 -0.51 0 0 0 0.51 -0.29 0 0 -1.18zm-1.43 0l0.31 0 0.17 0.43c0.07,0.16 0.12,0.28 0.15,0.36l0 0c0.02,-0.06 0.06,-0.17 0.13,-0.34l0.18 -0.45 0.32 0 -0.76 1.75 -0.29 0 0.27 -0.63 -0.48 -1.12zm-0.64 1.22c-0.06,0 -0.12,-0.02 -0.17,-0.04 -0.05,-0.02 -0.09,-0.05 -0.13,-0.09l0 0c0,0.02 0,0.04 0,0.07 0,0.03 0,0.07 0,0.1l0 0.49 -0.29 0 0 -1.75 0.25 0 0.02 0.14 0 0c0.04,-0.05 0.08,-0.09 0.14,-0.12 0.06,-0.03 0.12,-0.05 0.19,-0.05 0.07,0 0.13,0.02 0.19,0.04 0.07,0.02 0.12,0.06 0.17,0.11 0.05,0.05 0.09,0.11 0.11,0.19 0.03,0.07 0.05,0.16 0.05,0.27 0,0.11 -0.02,0.2 -0.05,0.28 -0.03,0.08 -0.07,0.15 -0.12,0.2 -0.05,0.05 -0.11,0.09 -0.17,0.12 -0.06,0.02 -0.12,0.04 -0.19,0.04zm-0.04 -1.02c-0.05,0.01 -0.09,0.02 -0.14,0.04 -0.04,0.03 -0.09,0.06 -0.12,0.1l0 0.53c0.01,0.01 0.03,0.02 0.04,0.04 0.02,0.01 0.04,0.02 0.06,0.04 0.02,0.01 0.05,0.02 0.07,0.02 0.03,0.01 0.05,0.01 0.08,0.01 0.05,0 0.09,0 0.12,-0.02 0.04,-0.02 0.06,-0.05 0.09,-0.09 0.02,-0.03 0.04,-0.07 0.05,-0.12 0.01,-0.05 0.02,-0.1 0.02,-0.16 0,-0.07 -0.01,-0.12 -0.02,-0.17 -0.01,-0.05 -0.03,-0.09 -0.05,-0.12 -0.03,-0.03 -0.05,-0.05 -0.09,-0.07 -0.03,-0.02 -0.07,-0.03 -0.11,-0.03zm-1.4 0.05l-0.38 0 0 -0.25 1.05 0 0 0.25 -0.38 0 0 0.93 -0.29 0 0 -0.93zm-0.49 0.91c-0.04,0.01 -0.08,0.03 -0.14,0.04 -0.05,0.01 -0.1,0.02 -0.16,0.02 -0.09,0 -0.17,-0.02 -0.24,-0.04 -0.08,-0.03 -0.14,-0.06 -0.2,-0.11 -0.05,-0.05 -0.09,-0.11 -0.13,-0.19 -0.03,-0.08 -0.04,-0.17 -0.04,-0.27 0,-0.11 0.01,-0.21 0.05,-0.29 0.04,-0.08 0.09,-0.15 0.14,-0.2 0.06,-0.05 0.13,-0.09 0.2,-0.11 0.07,-0.02 0.14,-0.04 0.21,-0.04 0.06,0 0.11,0.01 0.16,0.02 0.05,0.01 0.09,0.02 0.13,0.04l0 0.23c-0.04,-0.01 -0.07,-0.03 -0.11,-0.04 -0.04,-0.01 -0.09,-0.01 -0.13,-0.01 -0.05,0 -0.09,0.01 -0.14,0.02 -0.04,0.02 -0.08,0.04 -0.11,0.07 -0.03,0.03 -0.06,0.07 -0.08,0.12 -0.02,0.05 -0.02,0.11 -0.02,0.19 0,0.05 0,0.1 0.02,0.14 0.01,0.05 0.03,0.09 0.06,0.12 0.03,0.03 0.07,0.06 0.11,0.08 0.04,0.02 0.09,0.03 0.15,0.03 0.06,0 0.1,-0.01 0.15,-0.02 0.04,-0.01 0.08,-0.02 0.12,-0.04l0 0.24zm-1.46 0.02l0 -0.48 -0.48 0 0 0.48 -0.28 0 0 -1.18 0.28 0 0 0.45 0.48 0 0 -0.45 0.29 0 0 1.18 -0.29 0zm-1.02 -0.59c0,0.1 -0.01,0.18 -0.04,0.26 -0.03,0.07 -0.07,0.14 -0.12,0.19 -0.05,0.06 -0.12,0.1 -0.19,0.13 -0.07,0.03 -0.15,0.05 -0.24,0.05 -0.1,0 -0.18,-0.02 -0.25,-0.05 -0.08,-0.03 -0.14,-0.07 -0.19,-0.13 -0.05,-0.05 -0.09,-0.12 -0.12,-0.19 -0.03,-0.08 -0.04,-0.16 -0.04,-0.26 0,-0.09 0.01,-0.17 0.04,-0.25 0.03,-0.08 0.07,-0.14 0.12,-0.2 0.05,-0.05 0.12,-0.09 0.19,-0.12 0.07,-0.03 0.15,-0.05 0.24,-0.05 0.1,0 0.18,0.02 0.25,0.05 0.08,0.03 0.14,0.07 0.19,0.12 0.05,0.06 0.09,0.12 0.12,0.2 0.03,0.08 0.04,0.16 0.04,0.25zm-0.3 0c0,-0.06 -0.01,-0.11 -0.02,-0.16 -0.02,-0.05 -0.04,-0.09 -0.06,-0.12 -0.03,-0.04 -0.06,-0.06 -0.1,-0.08 -0.03,-0.01 -0.07,-0.02 -0.12,-0.02 -0.04,0 -0.08,0.01 -0.11,0.02 -0.04,0.02 -0.07,0.04 -0.1,0.08 -0.02,0.03 -0.04,0.07 -0.06,0.12 -0.01,0.05 -0.02,0.1 -0.02,0.16 0,0.07 0.01,0.12 0.02,0.17 0.02,0.05 0.04,0.09 0.06,0.12 0.03,0.03 0.06,0.06 0.1,0.07 0.03,0.02 0.07,0.03 0.12,0.03 0.04,0 0.08,-0.01 0.11,-0.03 0.04,-0.01 0.07,-0.04 0.1,-0.07 0.02,-0.03 0.04,-0.07 0.06,-0.12 0.01,-0.05 0.02,-0.1 0.02,-0.17zm-2.02 -0.59l0.29 0 0 0.52 0.01 0 0.4 -0.52 0.35 0 -0.48 0.59 0.51 0.59 -0.35 0 -0.43 -0.51 -0.01 0 0 0.51 -0.29 0 0 -1.18zm-0.83 0l0 1.18 -0.29 0 0 -0.34c0,-0.15 0,-0.29 0.01,-0.42l0 0c-0.05,0.09 -0.13,0.2 -0.23,0.34l-0.32 0.42 -0.26 0 0 -1.18 0.29 0 0 0.35c0,0.16 -0.01,0.31 -0.02,0.42l0.01 0c0.05,-0.08 0.12,-0.2 0.23,-0.34l0.31 -0.43 0.27 0zm29.98 -1.9l0.29 0 0 0.51 0 0 0.41 -0.51 0.35 0 -0.49 0.58 0.51 0.6 -0.35 0 -0.43 -0.51 0 0 0 0.51 -0.29 0 0 -1.18zm-0.26 0.59c0,0.09 -0.01,0.18 -0.04,0.26 -0.03,0.07 -0.07,0.14 -0.12,0.19 -0.05,0.06 -0.11,0.1 -0.19,0.13 -0.07,0.03 -0.15,0.04 -0.24,0.04 -0.09,0 -0.18,-0.01 -0.25,-0.04 -0.07,-0.03 -0.14,-0.07 -0.19,-0.13 -0.05,-0.05 -0.09,-0.12 -0.11,-0.19 -0.03,-0.08 -0.05,-0.17 -0.05,-0.26 0,-0.09 0.02,-0.18 0.05,-0.25 0.02,-0.08 0.06,-0.14 0.11,-0.2 0.06,-0.05 0.12,-0.1 0.19,-0.12 0.08,-0.03 0.16,-0.05 0.25,-0.05 0.09,0 0.17,0.02 0.25,0.05 0.07,0.02 0.13,0.07 0.18,0.12 0.05,0.06 0.09,0.12 0.12,0.2 0.03,0.07 0.04,0.16 0.04,0.25zm-0.3 0c0,-0.06 0,-0.12 -0.02,-0.16 -0.01,-0.05 -0.03,-0.09 -0.06,-0.12 -0.03,-0.04 -0.06,-0.06 -0.09,-0.08 -0.04,-0.01 -0.08,-0.02 -0.12,-0.02 -0.05,0 -0.08,0.01 -0.12,0.02 -0.04,0.02 -0.07,0.04 -0.09,0.08 -0.03,0.03 -0.05,0.07 -0.06,0.12 -0.02,0.04 -0.03,0.1 -0.03,0.16 0,0.06 0.01,0.12 0.03,0.17 0.01,0.05 0.03,0.09 0.06,0.12 0.02,0.03 0.05,0.05 0.09,0.07 0.04,0.02 0.08,0.03 0.12,0.03 0.04,0 0.08,-0.01 0.12,-0.03 0.03,-0.02 0.06,-0.04 0.09,-0.07 0.03,-0.03 0.05,-0.07 0.06,-0.12 0.02,-0.05 0.02,-0.11 0.02,-0.17zm-1.58 -0.12c0.04,0 0.08,-0.01 0.1,-0.02 0.02,-0.01 0.04,-0.03 0.05,-0.05 0.01,-0.02 0.02,-0.04 0.02,-0.06 0,-0.05 -0.02,-0.08 -0.06,-0.1 -0.03,-0.01 -0.06,-0.02 -0.11,-0.02l-0.22 0 0 0.25 0.22 0zm-0.02 0.49c0.04,0 0.06,0 0.08,-0.01 0.02,0 0.04,0 0.05,-0.01 0.03,-0.01 0.06,-0.03 0.07,-0.05 0.01,-0.02 0.02,-0.04 0.02,-0.07 0,-0.03 -0.01,-0.05 -0.02,-0.07 -0.01,-0.02 -0.03,-0.03 -0.05,-0.04 -0.02,-0.01 -0.03,-0.01 -0.05,-0.02 -0.01,0 -0.03,0 -0.06,0l-0.24 0 0 0.27 0.2 0zm0.49 -0.65c0,0.06 -0.02,0.11 -0.05,0.15 -0.03,0.05 -0.08,0.08 -0.13,0.1l0 0.01c0.07,0.02 0.12,0.05 0.16,0.09 0.03,0.04 0.05,0.1 0.05,0.16 0,0.08 -0.02,0.14 -0.07,0.2 -0.04,0.06 -0.11,0.1 -0.2,0.13 -0.04,0.01 -0.07,0.02 -0.12,0.02 -0.04,0.01 -0.09,0.01 -0.16,0.01l-0.46 0 0 -1.18 0.52 0c0.05,0 0.09,0 0.12,0.01 0.04,0 0.07,0.01 0.1,0.02 0.08,0.02 0.13,0.06 0.17,0.11 0.04,0.05 0.07,0.1 0.07,0.17zm-1.23 0.28c0,0.09 -0.02,0.18 -0.04,0.26 -0.03,0.07 -0.07,0.14 -0.12,0.19 -0.06,0.06 -0.12,0.1 -0.19,0.13 -0.07,0.03 -0.16,0.04 -0.25,0.04 -0.09,0 -0.17,-0.01 -0.25,-0.04 -0.07,-0.03 -0.13,-0.07 -0.18,-0.13 -0.05,-0.05 -0.09,-0.12 -0.12,-0.19 -0.03,-0.08 -0.04,-0.17 -0.04,-0.26 0,-0.09 0.01,-0.18 0.04,-0.25 0.03,-0.08 0.07,-0.14 0.12,-0.2 0.05,-0.05 0.11,-0.1 0.19,-0.12 0.07,-0.03 0.15,-0.05 0.24,-0.05 0.09,0 0.18,0.02 0.25,0.05 0.07,0.02 0.14,0.07 0.19,0.12 0.05,0.06 0.09,0.12 0.12,0.2 0.02,0.07 0.04,0.16 0.04,0.25zm-0.3 0c0,-0.06 -0.01,-0.12 -0.02,-0.16 -0.02,-0.05 -0.04,-0.09 -0.06,-0.12 -0.03,-0.04 -0.06,-0.06 -0.1,-0.08 -0.04,-0.01 -0.08,-0.02 -0.12,-0.02 -0.04,0 -0.08,0.01 -0.12,0.02 -0.03,0.02 -0.06,0.04 -0.09,0.08 -0.03,0.03 -0.05,0.07 -0.06,0.12 -0.02,0.04 -0.02,0.1 -0.02,0.16 0,0.06 0,0.12 0.02,0.17 0.01,0.05 0.03,0.09 0.06,0.12 0.03,0.03 0.06,0.05 0.09,0.07 0.04,0.02 0.08,0.03 0.12,0.03 0.05,0 0.09,-0.01 0.12,-0.03 0.04,-0.02 0.07,-0.04 0.1,-0.07 0.02,-0.03 0.04,-0.07 0.06,-0.12 0.01,-0.05 0.02,-0.11 0.02,-0.17zm-1.44 0.59l0 -0.49 -0.47 0 0 0.49 -0.29 0 0 -1.18 0.29 0 0 0.45 0.47 0 0 -0.45 0.29 0 0 1.18 -0.29 0zm-1.38 -0.5c-0.02,-0.01 -0.06,-0.01 -0.09,-0.02 -0.04,0 -0.07,-0.01 -0.11,-0.01 -0.07,0 -0.13,0.02 -0.17,0.04 -0.04,0.03 -0.06,0.08 -0.06,0.13 0,0.03 0.01,0.05 0.01,0.07 0.01,0.02 0.03,0.04 0.04,0.05 0.02,0.02 0.04,0.03 0.06,0.03 0.02,0.01 0.04,0.01 0.07,0.01 0.02,0 0.05,0 0.08,-0.01 0.02,-0.01 0.05,-0.02 0.07,-0.03 0.02,-0.01 0.04,-0.02 0.06,-0.04 0.02,-0.01 0.03,-0.03 0.04,-0.04l0 -0.18zm0.03 0.38l-0.01 0c-0.01,0.01 -0.03,0.03 -0.06,0.05 -0.02,0.02 -0.05,0.03 -0.07,0.05 -0.03,0.02 -0.07,0.03 -0.1,0.04 -0.04,0.01 -0.08,0.01 -0.12,0.01 -0.05,0 -0.11,-0.01 -0.16,-0.02 -0.04,-0.02 -0.09,-0.05 -0.12,-0.08 -0.04,-0.03 -0.06,-0.07 -0.08,-0.12 -0.02,-0.05 -0.03,-0.1 -0.03,-0.16 0,-0.06 0.01,-0.12 0.03,-0.17 0.02,-0.05 0.06,-0.09 0.1,-0.12 0.04,-0.04 0.09,-0.07 0.15,-0.08 0.06,-0.02 0.12,-0.03 0.19,-0.03 0.05,0 0.1,0 0.14,0.01 0.04,0 0.08,0.01 0.11,0.02l0 -0.05c0,-0.02 0,-0.05 -0.01,-0.08 -0.01,-0.02 -0.02,-0.04 -0.05,-0.06 -0.02,-0.02 -0.04,-0.04 -0.08,-0.05 -0.03,-0.01 -0.07,-0.02 -0.12,-0.02 -0.06,0 -0.12,0.01 -0.17,0.02 -0.06,0.01 -0.13,0.03 -0.19,0.06l0 -0.23c0.05,-0.02 0.12,-0.04 0.18,-0.06 0.07,-0.01 0.14,-0.02 0.21,-0.02 0.09,0 0.17,0.01 0.23,0.03 0.07,0.02 0.12,0.05 0.16,0.09 0.05,0.04 0.08,0.08 0.1,0.13 0.02,0.05 0.03,0.11 0.03,0.17l0 0.44c0,0.08 0,0.15 0.01,0.2 0,0.06 0,0.11 0,0.15l-0.26 0 -0.01 -0.12zm-1.55 -0.82l-0.37 0 0 -0.24 1.04 0 0 0.24 -0.38 0 0 0.94 -0.29 0 0 -0.94zm-0.49 0.92c-0.04,0.01 -0.08,0.02 -0.13,0.04 -0.06,0.01 -0.11,0.01 -0.17,0.01 -0.09,0 -0.17,-0.01 -0.24,-0.03 -0.07,-0.03 -0.14,-0.07 -0.19,-0.12 -0.06,-0.04 -0.1,-0.11 -0.14,-0.18 -0.03,-0.08 -0.04,-0.17 -0.04,-0.27 0,-0.11 0.02,-0.21 0.05,-0.29 0.04,-0.08 0.09,-0.15 0.14,-0.2 0.06,-0.05 0.13,-0.09 0.2,-0.11 0.07,-0.03 0.15,-0.04 0.22,-0.04 0.05,0 0.1,0.01 0.15,0.01 0.05,0.01 0.09,0.03 0.13,0.04l0 0.24c-0.03,-0.02 -0.07,-0.03 -0.11,-0.04 -0.04,-0.01 -0.09,-0.01 -0.13,-0.01 -0.05,0 -0.09,0 -0.14,0.02 -0.04,0.01 -0.08,0.04 -0.11,0.07 -0.03,0.03 -0.06,0.07 -0.08,0.12 -0.01,0.05 -0.02,0.11 -0.02,0.18 0,0.05 0,0.1 0.02,0.15 0.01,0.05 0.03,0.08 0.06,0.12 0.03,0.03 0.07,0.06 0.11,0.08 0.04,0.02 0.09,0.03 0.15,0.03 0.06,0 0.1,-0.01 0.15,-0.02 0.04,-0.01 0.08,-0.02 0.12,-0.04l0 0.24zm-2.28 -1.16l0.31 0 0.18 0.43c0.06,0.16 0.11,0.28 0.14,0.36l0 0c0.02,-0.06 0.07,-0.17 0.13,-0.34l0.18 -0.45 0.32 0 -0.76 1.75 -0.29 0 0.27 -0.63 -0.48 -1.12zm-0.11 0.59c0,0.09 -0.01,0.18 -0.04,0.26 -0.03,0.07 -0.07,0.14 -0.12,0.19 -0.05,0.06 -0.12,0.1 -0.19,0.13 -0.07,0.03 -0.15,0.04 -0.24,0.04 -0.1,0 -0.18,-0.01 -0.25,-0.04 -0.08,-0.03 -0.14,-0.07 -0.19,-0.13 -0.05,-0.05 -0.09,-0.12 -0.12,-0.19 -0.03,-0.08 -0.04,-0.17 -0.04,-0.26 0,-0.09 0.01,-0.18 0.04,-0.25 0.03,-0.08 0.07,-0.14 0.12,-0.2 0.05,-0.05 0.12,-0.1 0.19,-0.12 0.07,-0.03 0.15,-0.05 0.24,-0.05 0.1,0 0.18,0.02 0.25,0.05 0.08,0.02 0.14,0.07 0.19,0.12 0.05,0.06 0.09,0.12 0.12,0.2 0.03,0.07 0.04,0.16 0.04,0.25zm-0.3 0c0,-0.06 -0.01,-0.12 -0.02,-0.16 -0.02,-0.05 -0.04,-0.09 -0.06,-0.12 -0.03,-0.04 -0.06,-0.06 -0.1,-0.08 -0.03,-0.01 -0.07,-0.02 -0.12,-0.02 -0.04,0 -0.08,0.01 -0.11,0.02 -0.04,0.02 -0.07,0.04 -0.1,0.08 -0.02,0.03 -0.04,0.07 -0.06,0.12 -0.01,0.04 -0.02,0.1 -0.02,0.16 0,0.06 0.01,0.12 0.02,0.17 0.02,0.05 0.04,0.09 0.06,0.12 0.03,0.03 0.06,0.05 0.1,0.07 0.03,0.02 0.07,0.03 0.12,0.03 0.04,0 0.08,-0.01 0.11,-0.03 0.04,-0.02 0.07,-0.04 0.1,-0.07 0.02,-0.03 0.04,-0.07 0.06,-0.12 0.01,-0.05 0.02,-0.11 0.02,-0.17zm-1.01 -0.34l-0.55 0 0 0.93 -0.29 0 0 -1.18 0.84 0 0 0.25zm-1.62 0.96c-0.06,0 -0.12,-0.01 -0.17,-0.03 -0.05,-0.03 -0.1,-0.05 -0.13,-0.09l-0.01 0c0,0.02 0.01,0.04 0.01,0.07 0,0.03 0,0.06 0,0.1l0 0.49 -0.29 0 0 -1.75 0.25 0 0.01 0.13 0.01 0c0.04,-0.04 0.08,-0.08 0.14,-0.11 0.05,-0.03 0.12,-0.05 0.19,-0.05 0.07,0 0.13,0.01 0.19,0.04 0.06,0.02 0.12,0.06 0.17,0.11 0.05,0.05 0.08,0.11 0.11,0.19 0.03,0.07 0.05,0.16 0.05,0.26 0,0.11 -0.02,0.21 -0.05,0.29 -0.03,0.08 -0.07,0.15 -0.12,0.2 -0.05,0.05 -0.11,0.09 -0.17,0.11 -0.06,0.03 -0.12,0.04 -0.19,0.04zm-0.04 -1.01c-0.05,0 -0.1,0.02 -0.14,0.04 -0.05,0.02 -0.09,0.06 -0.12,0.1l0 0.52c0.01,0.02 0.02,0.03 0.04,0.05 0.02,0.01 0.04,0.02 0.06,0.03 0.02,0.01 0.04,0.02 0.07,0.03 0.02,0.01 0.05,0.01 0.08,0.01 0.04,0 0.08,-0.01 0.12,-0.03 0.03,-0.02 0.06,-0.04 0.09,-0.08 0.02,-0.03 0.04,-0.07 0.05,-0.12 0.01,-0.05 0.02,-0.11 0.02,-0.16 0,-0.07 -0.01,-0.12 -0.02,-0.17 -0.01,-0.05 -0.03,-0.09 -0.06,-0.12 -0.02,-0.03 -0.05,-0.06 -0.08,-0.07 -0.03,-0.02 -0.07,-0.03 -0.11,-0.03z"/>
   <g>
    <path class="fil1" d="M4.51 4.42l-1.52 -2.32 0.5 -0.95 1.24 1.91 0.28 0.4 0.04 0.47 -0.54 0.49z"/>
    <path class="fil2" d="M7.5 3.16l-1 0 0.44 -0.86 -2.08 -1.1 -0.45 0.83 -0.56 -0.83 0.64 -1.2 3.66 1.93 -0.65 1.23z"/>
    <path class="fil3" d="M7.29 4.37l-2.78 0.05 0.5 -0.96 0.59 0 2.2 -0.05 -0.51 0.96z"/>
    <path class="fil4" d="M3.92 4.71l-1.32 2.44 -1.08 0.01 1.09 -2 0.22 -0.43 0.48 -0.27 0.61 0.25z"/>
    <path class="fil5" d="M1.39 2.68l0.47 0.87 -0.96 0.02 0.02 2.36 0.94 0 -0.47 0.89 -1.36 0 -0.03 -4.13 1.39 -0.01z"/>
    <path class="fil6" d="M2.55 2.29l1.37 2.42 -1.09 0.02 -0.27 -0.52 -1.09 -1.92 1.08 0z"/>
    <path class="fil7" d="M4.62 5.54l-0.13 -0.53 2.77 -0.02 0.53 0.94 -2.28 0 -0.49 0.02 -0.4 -0.41z"/>
    <path class="fil8" d="M3.92 8.2l0.54 -0.84 0.48 0.84 2.06 -1.15 -0.45 -0.83 1 -0.02 0.66 1.2 -3.62 2.01 -0.67 -1.21z"/>
    <path class="fil9" d="M3.02 7.37l1.47 -2.36 0.53 0.94 -0.32 0.49 -1.16 1.87 -0.52 -0.94z"/>
   </g>
  </g>
 </g>
</svg>
